<?xml version="1.0" encoding="utf-8"?>
<!-- Generator: Adobe Illustrator 21.0.2, SVG Export Plug-In . SVG Version: 6.00 Build 0)  -->
<svg version="1.1" id="Capa_1" xmlns="http://www.w3.org/2000/svg" xmlns:xlink="http://www.w3.org/1999/xlink" x="0px" y="0px"
	 viewBox="0 0 100 100" style="enable-background:new 0 0 100 100;" xml:space="preserve">
<style type="text/css">
	.st0{fill:#FFFFFF;}
</style>
<g>
	<path class="st0" d="M54.5,4.1V65l13.6-17.3c1.5-2,4.4-2.3,6.3-0.8c2,1.5,2.3,4.4,0.8,6.3L53.5,80.8c-0.9,1.1-2.2,1.7-3.5,1.7
		s-2.7-0.6-3.5-1.7L24.8,53.2c-1.5-2-1.2-4.8,0.8-6.3c2-1.5,4.8-1.2,6.3,0.8L45.5,65V4.1C22.2,6.4,4,26,4,49.9c0,25.4,20.6,46,46,46
		s46-20.6,46-46C96,26,77.8,6.4,54.5,4.1z"/>
</g>
</svg>
