<?xml version="1.0" encoding="utf-8"?>
<!-- Generator: Adobe Illustrator 21.0.2, SVG Export Plug-In . SVG Version: 6.00 Build 0)  -->
<svg version="1.1" id="Capa_1" xmlns="http://www.w3.org/2000/svg" xmlns:xlink="http://www.w3.org/1999/xlink" x="0px" y="0px"
	 viewBox="0 0 400 230" style="enable-background:new 0 0 400 230;" xml:space="preserve">
<style type="text/css">
	.st0{fill:#FFFFFF;}
</style>
<g>
	<g>
		<path class="st0" d="M331.6,205.3c-0.2,8.5-5.4,13.3-13.9,13.4c-2.5,0-5-0.2-7.4-0.7c-5.6-1.1-9.1-5.5-9.6-12
			c-0.3-4-0.4-8.1-0.6-12.1c-0.1-1.2-0.2-2.4-0.4-3.6c-0.8-6.5-4.5-8.3-11.4-6.8c-2.3,0.5-3.9,2.2-4.3,4.6c-0.5,3.3-0.8,6.7-1,10.1
			c-0.3,3.8-0.1,7.7-0.6,11.5c-0.6,4.5-3.3,7.5-7.8,8c-4.1,0.4-8.3,0.6-12.3,0c-6.3-0.9-9.7-4.9-10.6-11.4c-0.4-2.5-0.6-5.1-0.6-7.7
			c0-21.9,0-43.8,0-65.7c0-10.7,3.3-14.1,13.9-14.3c2.3,0,4.6,0.1,6.9,0.3c6.7,0.7,10.1,4.3,10.7,11.1c0.4,5.1,0.5,10.3,1.2,15.4
			c0.8,5.6,3.4,8,8,8.2c3.3,0.1,5.4-1,6.2-4.2c0.9-3.4,1.3-7,1.6-10.6c0.5-4.4,0.4-8.8,1.1-13.1c0.8-4.7,3.5-6.8,8.2-7.1
			c3.8-0.2,7.7-0.3,11.5,0c7.4,0.6,10.9,4.4,11.2,11.7c0.2,4,0.4,8.1,0.4,12.1C332.1,150.5,331.9,192.2,331.6,205.3z"/>
		<path class="st0" d="M103.3,44.9c0.4,9.1,0.7,18.2,1.4,27.3c0.3,4.3,2.2,5.9,5.5,6.1c2.6,0.2,4.6-0.8,5.4-3.3
			c0.8-2.6,1.6-5.3,1.7-8c0.3-13.7,0.3-27.4,0.5-41.1c0-1.6,0.1-3.1,0.1-4.7c0.2-4.3,2.2-7.4,6.3-8.8c7-2.3,14.1-2.4,21.1-0.2
			c5,1.6,7.2,5.7,7.3,10.7c0.2,18.3,1.3,36.7-2.1,54.8c-2.5,13-8.5,23.8-21.5,29c-9.6,3.9-19.7,4.1-29.8,2c-10-2-17.7-7.4-23-16.1
			c-3.5-5.7-5.9-12-6.2-18.7c-0.8-15-0.9-30-1.2-44.9c-0.1-2.6,0.1-5.1,0.4-7.7c0.6-5.2,3.6-8.3,8.6-9.5c6.1-1.4,12.2-1.4,18.3,0.3
			c5,1.4,7.5,4.4,7.6,9.5C103.6,29.2,103.3,44.9,103.3,44.9z"/>
		<path class="st0" d="M189.2,109.5c-6.8-0.3-12.9-0.3-18.9-1c-4.7-0.5-7.2-3.7-7.8-8.3c-0.2-1.6-0.4-3.3-0.4-4.9
			c0-22.4-0.1-44.7,0-67.1c0-2.5,0.3-5.1,0.9-7.6c0.9-4.4,3.9-7.1,8.2-8c14.9-3.1,29.8-3.2,44.6,0.3c11.1,2.6,18.9,9.6,22.7,20.2
			c6.4,17.6,6.7,35.3-0.9,52.6c-5.2,11.9-14,20.4-27.3,22.5C203.1,109.3,195.8,109.1,189.2,109.5z M211.3,57.6
			c0.1-4.6-0.5-8-0.9-11.4c-0.2-1.4-0.6-2.9-1-4.3c-1-3.1-2.7-5.9-6.1-6.5c-7.9-1.5-11.5-0.7-11.6,8c0,8.6-0.4,17.3-0.3,25.9
			c0,2.9,0.4,5.9,1.1,8.7c0.6,2.6,2.6,3.8,5.4,3.9c6.2,0.2,10.2-2.6,11.5-9.2C210.5,67.5,211.2,62,211.3,57.6z"/>
		<path class="st0" d="M324.2,95.7c-0.5,4.5-2.9,8.3-7.2,10c-14.4,5.8-29.2,6.8-43.8,1c-12.5-4.9-19.7-14.8-23.1-27.4
			c-4.3-15.5-4.4-31.1,2.1-46.1c8-18.5,24.5-28,44.6-25.5c5.8,0.7,11.6,1.9,17,4c7.2,2.7,9.8,7.9,8.1,15.4
			c-0.9,3.9-2.8,7.7-4.9,11.2c-1.8,3.1-5.2,2.7-8.2,2c-2-0.5-3.8-1.3-5.7-2c-7.4-2.6-14.2-0.5-18,6.4c-2,3.7-3.4,7.9-4.1,12.1
			c-1,6.2-0.2,12.5,2,18.4c0.7,1.8,1.9,3.6,3.3,5c3.2,3,7.7,1.9,9-2.3c0.8-2.6,1-5.4,1.2-8.1c0.3-5.7,2.5-9,8.1-9.8
			c4.4-0.7,9-0.6,13.3,0c4.7,0.7,6.7,3.8,6.8,8.6c0.1,3.9,0,7.7,0,11.6C325,80.3,324.8,90.6,324.2,95.7z"/>
		<path class="st0" d="M165,205.1c1-4.8,2.4-11.9,4.1-18.8c4.6-18.6,10.2-37,17.5-54.7c0.7-1.7,1.5-3.4,2.3-5
			c2.1-3.9,5.3-6.4,9.7-6.8c3.9-0.3,7.9-0.5,11.8-0.2c6.3,0.4,10,4.2,12,9.8c3.4,9.3,7.2,18.5,10,28c4.6,15.9,8.7,32,12.8,48.1
			c1.7,6.7-1.8,11.4-8.7,12.2c-3,0.3-6,0.3-9,0c-4.9-0.4-8.5-3.2-11.2-7.2c-0.8-1.2-1.5-2.5-2.2-3.8c-1.3-2.5-3.3-3.8-6.2-3.8
			c-1.6,0-3.1,0-4.7,0c-5.3,0-9.3,1.4-11,7.3c-1.5,5-5.4,7.5-10.7,7.5c-2.5,0-5,0.2-7.4-0.1C167.7,217.1,164.9,213.8,165,205.1z
			 M205.9,152.9c-0.3,0-0.7,0-1,0c-0.5,2.7-1,5.3-1.4,8c-0.9,6.1-1.8,12.2-2.4,18.3c-0.3,3.2,0.8,4.1,4.3,4.1c4.1,0,5.2-0.7,4.9-4
			c-0.4-4.4-1.1-8.7-1.8-13.1C207.7,161.8,206.8,157.3,205.9,152.9z"/>
		<path class="st0" d="M335.4,58.5c0-10.6,0-21.2,0-31.7c0-1,0-2,0-3c0.3-9.3,3.6-13,12.9-13.2c12.1-0.3,24.3-0.2,36.4,0
			c6.2,0.1,8.1,2.1,8.2,8.2c0.1,3.7-0.1,7.4-0.6,11c-0.8,5.6-3.6,7.7-9.3,7.5c-3.1-0.1-6.2-0.4-9.4-0.5c-1.1,0-2.2,0.2-3.2,0.5
			c-2.3,0.8-3.3,2.5-3.1,4.9c0.2,2.3,1.7,3.7,4,3.9c2.9,0.3,5.9,0.3,8.8,0.6c4.2,0.3,6.4,2,6.8,6.2c0.5,4.6,0.5,9.2,0.3,13.8
			c-0.2,3.8-2.7,5.9-6.6,6.1c-2.1,0.1-4.2-0.1-6.3,0c-1.4,0.1-2.8,0.2-4,0.7c-2.1,0.8-3.1,2.5-2.9,4.8s1.6,3.7,3.7,3.9
			c3.8,0.4,7.7,0.5,11.5,0.5c7.3-0.1,10.5-0.4,10.7,10.8c0.1,2.3-0.2,4.6-0.5,6.9c-0.8,5-4.4,8.3-9.8,8.4c-12,0.1-23.9,0.2-35.9,0
			c-5.6-0.1-10-4.5-11.1-10.8c-0.4-2-0.6-4-0.6-6C335.3,80.6,335.4,69.5,335.4,58.5z"/>
		<path class="st0" d="M101,167c0-10.6,0-21.2,0-31.7c0-1,0-2,0-3c0.3-9.3,3.6-13,12.9-13.2c12.1-0.3,24.3-0.2,36.4,0
			c6.2,0.1,8.1,2.1,8.2,8.2c0.1,3.7-0.1,7.4-0.6,11c-0.8,5.6-3.6,7.7-9.3,7.5c-3.1-0.1-6.2-0.4-9.4-0.5c-1.1,0-2.2,0.2-3.2,0.5
			c-2.3,0.8-3.3,2.5-3.1,4.9c0.2,2.3,1.7,3.7,4,3.9c2.9,0.3,5.9,0.3,8.8,0.6c4.2,0.3,6.4,2,6.8,6.2c0.5,4.6,0.5,9.2,0.3,13.8
			c-0.2,3.8-2.7,5.9-6.6,6.1c-2.1,0.1-4.2-0.1-6.3,0c-1.4,0.1-2.8,0.2-4,0.7c-2.1,0.8-3.1,2.5-2.9,4.8c0.2,2.3,1.6,3.7,3.7,3.9
			c3.8,0.4,7.7,0.5,11.5,0.5c7.3-0.1,10.5-0.4,10.7,10.8c0.1,2.3-0.2,4.6-0.5,6.9c-0.8,5-4.4,8.3-9.8,8.4c-12,0.1-23.9,0.2-35.9,0
			c-5.6-0.1-10-4.5-11.1-10.8c-0.4-2-0.6-4-0.6-6C100.9,189.1,101,178.1,101,167z"/>
		<path class="st0" d="M53.8,160.3c1-2.8,2.3-5.5,2.9-8.4c1.6-7.3,2.9-14.8,4.4-22.1c1.4-6.8,3.1-8.8,9.8-9.5
			c5.2-0.6,10.5-0.4,15.6,0.2c5.8,0.7,7.4,3.5,6.3,9.3c-1.9,9.9-6.5,18.9-11,27.8c-3.2,6.4-6.5,12.7-9.8,19.1c-2.1,4.1-2.9,8.5-3,13
			c-0.1,6-0.2,11.9-0.8,17.9c-0.5,5.8-3.5,8.8-9.4,9.4c-4,0.4-8.1,0.5-12.1,0.1c-7.3-0.8-10.7-4.7-11.1-12
			c-0.3-4.9-0.7-9.8-0.5-14.6c0.3-7.5-2.1-14-5.4-20.5c-5.9-11.8-11.5-23.8-17-35.8c-1-2.2-1.3-4.8-1.5-7.2
			c-0.2-4.1,1.8-6.6,5.8-7.1c7.4-0.9,14.7-0.5,21.9,1.3c6.1,1.6,6.9,6.9,7.7,12.1c1.2,7.6,2.5,15.2,3.9,22.8
			c0.3,1.4,1.1,2.8,1.7,4.2C52.9,160.3,53.4,160.3,53.8,160.3z"/>
		<path class="st0" d="M6.8,59.6c0-12.9,0-25.8,0-38.6c0-7.6,2.4-10,10.1-10.1c11.6-0.1,23.2-0.1,34.8,0c7.9,0,11.2,3.3,11.4,11.3
			c0,2.1-0.2,4.2-0.6,6.3c-1.3,6.1-4.7,8.9-11.3,9.3c-2.5,0.2-5,0-7.4,0.1c-3.7,0.1-5.6,1.6-5.8,4.5c-0.2,3.7,1.6,6.2,5.1,6.6
			c3.5,0.3,7,0.3,10.5,0.4c5.7,0.2,8.3,2.7,8.4,8.3c0.1,3.3-0.1,6.6-0.5,9.9c-0.4,4.1-2.9,6.3-7.1,6.7c-2.3,0.2-4.6,0.3-6.9,0.5
			c-6,0.7-8.4,3.4-8.5,9.5c-0.1,4.3,0,8.6,0,13c0,7.9-4,11.8-11.9,11.8c-3.9,0-7.7,0-11.6-0.1c-6.2-0.3-8.6-2.7-8.6-9
			C6.7,86.5,6.8,73,6.8,59.6L6.8,59.6z"/>
		<path class="st0" d="M353.6,150.2c0-7.3,0-14.5,0-21.8c0-6.1,2.9-9.5,8.9-10.2c2.9-0.4,5.9-0.4,8.8-0.1c6.1,0.8,9.3,4.1,9.4,10.3
			c0.2,14.6,0.2,29.3,0,43.9c-0.1,6-3.2,9.7-9.2,10.6c-3.3,0.5-6.8,0.4-10.1-0.3c-5-1-7.8-5-7.8-10.3
			C353.6,164.9,353.6,157.6,353.6,150.2z"/>
		<path class="st0" d="M360.8,218.1c-3.4-0.9-5.7-3.1-6.8-6.6c-2.6-7.9,0.3-15.1,7.5-18.6c6.4-3.1,15.9-0.3,19.8,5.8
			c5.4,8.4-0.5,19-11.1,19.9c-1.1,0.1-2.2,0-3.3,0C366.8,218.8,362.8,218.6,360.8,218.1z"/>
	</g>
</g>
</svg>
