<?xml version="1.0" encoding="utf-8"?>
<!-- Generator: Adobe Illustrator 21.0.2, SVG Export Plug-In . SVG Version: 6.00 Build 0)  -->
<svg version="1.1" id="Capa_1" xmlns="http://www.w3.org/2000/svg" xmlns:xlink="http://www.w3.org/1999/xlink" x="0px" y="0px"
	 viewBox="0 0 100 56" style="enable-background:new 0 0 100 56;" xml:space="preserve">
<style type="text/css">
	.st0{fill:#B5D3CC;}
</style>
<g>
	<g>
		<path class="st0" d="M56.5,23.4c0.5-1.5,1.2-2.9,1.5-4.4c0.8-3.8,1.5-7.7,2.3-11.5C61,4,61.9,3,65.4,2.6c2.7-0.3,5.4-0.2,8.1,0.1
			c3,0.4,3.9,1.8,3.3,4.8c-1,5.2-3.4,9.8-5.7,14.4c-1.7,3.3-3.4,6.6-5.1,9.9c-1.1,2.1-1.5,4.4-1.5,6.8c0,3.1-0.1,6.2-0.4,9.3
			c-0.3,3-1.8,4.6-4.9,4.9c-2.1,0.2-4.2,0.3-6.3,0c-3.8-0.4-5.5-2.4-5.8-6.3c-0.1-2.5-0.4-5.1-0.2-7.6c0.2-3.9-1.1-7.3-2.8-10.6
			c-3.1-6.1-6-12.4-8.8-18.6c-0.5-1.1-0.7-2.5-0.8-3.8c-0.1-2.1,0.9-3.4,3-3.7c3.8-0.5,7.6-0.3,11.4,0.7c3.2,0.8,3.6,3.6,4,6.3
			c0.6,4,1.3,7.9,2,11.8c0.1,0.7,0.6,1.4,0.9,2.2C56.1,23.4,56.3,23.4,56.5,23.4z"/>
	</g>
	<g>
		<path class="st0" d="M2.8,27.3c0-6.7,0-13.4,0-20.1C2.8,3.3,4,2,8,2c6,0,12.1,0,18.1,0c4.1,0,5.8,1.7,5.9,5.9
			c0,1.1-0.1,2.2-0.3,3.3c-0.7,3.1-2.5,4.6-5.9,4.8c-1.3,0.1-2.6,0-3.9,0c-1.9,0-2.9,0.8-3,2.4c-0.1,1.9,0.8,3.2,2.7,3.4
			C23.4,22,25.2,22,27,22c3,0.1,4.3,1.4,4.4,4.3c0,1.7-0.1,3.4-0.2,5.2c-0.2,2.1-1.5,3.3-3.7,3.5c-1.2,0.1-2.4,0.1-3.6,0.3
			c-3.1,0.4-4.3,1.8-4.4,4.9c0,2.2,0,4.5,0,6.7c0,4.1-2.1,6.1-6.2,6.1c-2,0-4,0-6-0.1c-3.2-0.1-4.5-1.4-4.5-4.7
			C2.7,41.3,2.8,34.3,2.8,27.3C2.8,27.3,2.8,27.3,2.8,27.3z"/>
	</g>
	<g>
		<path class="st0" d="M79.2,19.1c0-3.8,0-7.6,0-11.3c0-3.1,1.5-4.9,4.6-5.3c1.5-0.2,3.1-0.2,4.5,0c3.2,0.4,4.8,2.1,4.9,5.3
			c0.1,7.6,0.1,15.2,0,22.8c0,3.1-1.7,5-4.8,5.5c-1.7,0.3-3.5,0.2-5.2-0.1c-2.6-0.5-4-2.6-4.1-5.3C79.1,26.7,79.1,22.9,79.2,19.1z"
			/>
	</g>
	<g>
		<path class="st0" d="M83.2,54.3c-1.8-0.5-3-1.6-3.6-3.4c-1.4-4.1,0.1-7.8,3.9-9.7c3.3-1.6,8.3-0.2,10.3,3
			c2.8,4.4-0.3,9.9-5.8,10.3c-0.6,0.1-1.1,0-1.7,0C86.3,54.7,84.2,54.6,83.2,54.3z"/>
	</g>
</g>
</svg>
