<?xml version="1.0" encoding="utf-8"?>
<!-- Generator: Adobe Illustrator 21.0.2, SVG Export Plug-In . SVG Version: 6.00 Build 0)  -->
<svg version="1.1" id="Capa_1" xmlns="http://www.w3.org/2000/svg" xmlns:xlink="http://www.w3.org/1999/xlink" x="0px" y="0px"
	 viewBox="0 0 200 120" style="enable-background:new 0 0 200 120;" xml:space="preserve">
<style type="text/css">
	.st0{fill:#B5D3CC;}
</style>
<g>
	<g>
		<path class="st0" d="M116.2,49.7c1.1-3,2.5-6,3.1-9.1c1.8-8,3.1-16.1,4.8-24.1c1.5-7.4,3.4-9.6,10.7-10.4c5.6-0.6,11.4-0.5,17,0.3
			c6.4,0.8,8.1,3.9,6.9,10.1c-2.1,10.8-7.1,20.5-12,30.3c-3.5,7-7.1,13.9-10.6,20.8c-2.3,4.5-3.1,9.2-3.2,14.2
			c-0.1,6.5-0.2,13-0.8,19.5c-0.6,6.3-3.9,9.6-10.2,10.2c-4.3,0.5-8.8,0.6-13.1,0.1c-8-0.9-11.6-5.1-12.1-13.1
			c-0.3-5.3-0.7-10.6-0.5-15.9c0.3-8.1-2.3-15.2-5.9-22.3c-6.4-12.8-12.5-25.9-18.5-39c-1.1-2.4-1.5-5.2-1.6-7.9
			c-0.3-4.4,1.9-7.2,6.3-7.7c8-1,16-0.5,23.8,1.5c6.7,1.7,7.5,7.5,8.4,13.2c1.3,8.3,2.7,16.6,4.3,24.8c0.3,1.6,1.2,3,1.8,4.5
			C115.2,49.6,115.7,49.7,116.2,49.7z"/>
	</g>
	<g>
		<path class="st0" d="M3.5,57.9c0-14,0-28.1,0-42.1c0-8.3,2.6-10.9,11-11c12.6-0.1,25.3-0.1,37.9,0c8.7,0,12.2,3.6,12.4,12.3
			c0,2.3-0.2,4.6-0.7,6.9c-1.4,6.6-5.2,9.7-12.3,10.1c-2.7,0.2-5.4,0-8.1,0.1c-4,0.1-6.1,1.7-6.3,4.9c-0.2,4,1.8,6.8,5.6,7.1
			c3.8,0.4,7.6,0.3,11.4,0.5c6.2,0.2,9,2.9,9.2,9.1c0.1,3.6-0.1,7.2-0.5,10.8c-0.5,4.5-3.2,6.9-7.8,7.2c-2.5,0.2-5,0.3-7.5,0.6
			c-6.5,0.8-9.1,3.7-9.2,10.3c-0.1,4.7,0,9.4,0,14.1c0,8.6-4.3,12.9-13,12.8c-4.2,0-8.4,0-12.6-0.2c-6.8-0.3-9.4-3-9.4-9.8
			C3.5,87.2,3.5,72.6,3.5,57.9C3.5,57.9,3.5,57.9,3.5,57.9z"/>
	</g>
	<g>
		<path class="st0" d="M163.6,40.6c0-7.9,0-15.8,0-23.7c0.1-6.6,3.2-10.3,9.7-11.1c3.1-0.4,6.4-0.5,9.5-0.1
			c6.6,0.8,10.1,4.5,10.2,11.2c0.2,15.9,0.2,31.9,0,47.8c-0.1,6.5-3.5,10.5-10,11.5c-3.6,0.5-7.4,0.4-11-0.3
			c-5.5-1.1-8.5-5.4-8.5-11.2C163.6,56.6,163.6,48.6,163.6,40.6z"/>
	</g>
	<g>
		<path class="st0" d="M172.1,114.5c-3.7-1-6.2-3.4-7.5-7.1c-2.8-8.6,0.3-16.4,8.1-20.2c6.9-3.4,17.3-0.3,21.5,6.3
			c5.8,9.2-0.5,20.7-12.1,21.7c-1.2,0.1-2.4,0-3.6,0C178.6,115.2,174.2,115,172.1,114.5z"/>
	</g>
</g>
</svg>
